<mxfile host="app.diagrams.net" modified="2024-01-02T07:30:08.051Z" agent="Mozilla/5.0 (Windows NT 10.0; Win64; x64) AppleWebKit/537.36 (KHTML, like Gecko) Chrome/120.0.0.0 Safari/537.36" version="22.1.16" etag="cxWfkBUR_fIZeUz3hNt-" type="github">
  <diagram name="Side-1" id="IQ5rBptq8aUrgE0ooH09">
    <mxGraphModel>
      <root>
        <mxCell id="0" />
        <mxCell id="1" parent="0" />
      </root>
    </mxGraphModel>
  </diagram>
</mxfile>
